<svg id="Layer_1" data-name="Layer 1" xmlns="http://www.w3.org/2000/svg" viewBox="0 0 1085 350.71"><defs><style>.cls-1,.cls-6{fill:#fff;}.cls-2{fill:#ef1d73;}.cls-3{fill:#217af4;}.cls-4{fill:#1d76f2;}.cls-5{fill:#ef1970;}.cls-6{font-size:112.97px;font-family:AvenirNext-HeavyItalic, Avenir Next;font-style:italic;letter-spacing:0.03em;}.cls-7{letter-spacing:-0.03em;}.cls-8{letter-spacing:0.02em;}.cls-9{letter-spacing:0.01em;}.cls-10{letter-spacing:0.03em;}</style></defs><title>hypairtube-logov2</title><path class="cls-1" d="M269.12,153.36a6.76,6.76,0,0,1,1.41.27c17.17,3.74,27.4,13.92,29.28,29.15,2.07,16.77-5.56,31.13-20.75,39.05-6.61.7-12.93,2.74-19.35,4.27-19.51,4.65-27,12.89-29.81,33-.87,6.33-2,12.49-5.09,18.13-4.9,8.84-12.18,14.59-22.24,16a137.91,137.91,0,0,0-19.3,4.71c-16.11,4.77-22.82,17.12-23.88,32.93a37.38,37.38,0,0,1-7.79,21c-5.93,7.69-13.57,12.18-23.55,12-18.46-3-29.93-17.59-29.14-37.17.73-18.07,13.91-31.55,32.51-33.23a70.88,70.88,0,0,0,19.06-5.7c11.61-5.58,16.91-15.64,18.57-28.05,3.39-25.42,10.78-32.9,36.24-37.34,15.68-2.73,28.21-9.59,32.74-26.25,4.22-15.51-5.71-33.3-21.52-38.64-5.4-1.83-11-2.72-16.61-3.82a2,2,0,0,1-1.21-.22c-19-4.24-27.4-13.64-29.37-32.93-2.2-21.52-11.45-31-35.67-36.52-1.93-.18-4,.42-5.72-.89l.18,0c-32-4.55-36.16-43.21-20-59.47,6.11-6.15,12.75-10.34,21.66-10.09,17.21,2.29,27.17,12,29.21,29.48,1.48,12.65,4.37,24.21,15.61,32.09,7.29,5.1,15.95,5.54,24,7.91l-.25-.06c20.66,4,28.89,13,31.37,34.25C232.37,139.72,241.83,148.39,269.12,153.36Z" transform="translate(-16.91 -13.21)"/><path class="cls-2" d="M129,362.93c16.33-3.39,26.5-14.44,27.83-30.25,2.12-25.21,11.67-35.33,36.65-38.84,22.06-3.1,31.32-12.66,34-35s13.35-32.62,36.18-35.14c5-.56,9.89-2,14.84-3a1.59,1.59,0,0,1,0,2.69c-25.4,3.68-33.37,11.78-36.89,37.47-2.77,20.24-13.71,31-33.94,33.26-24.12,2.74-33.34,11.89-36,35.77S153.42,366,129.17,363.62l-1.79,0Z" transform="translate(-16.91 -13.21)"/><path class="cls-3" d="M60.41,293.55c-28,2.44-47.47-16.29-42.82-41.27A34.86,34.86,0,0,1,48,223.94c3.14-.37,6.31-.52,9.42-1.06,16.94-2.93,28.35-15.09,29.31-31.11,1.07-18-8-31.22-25-36.56A18.4,18.4,0,0,1,59.16,154c.28-.41.57-.82.85-1.24C73.67,149,88.77,155,97,167.45c9,13.73,8.49,31.61-1.13,43.54-7.82,9.68-17.67,14.95-30.21,15.57-11.34.57-21,4.88-27.09,15-10,16.61-3.22,38.34,14.43,46.66,2.57,1.21,5.46,1.68,7.82,3.38C61.83,292.49,61.7,293.14,60.41,293.55Z" transform="translate(-16.91 -13.21)"/><path class="cls-4" d="M199.9,153.71c15.54-1.68,28.19,3.35,36.46,16.88,7.18,11.74,7.26,24,.17,35.95-6.28,10.57-16,15.93-28,17.19-24.95,2.64-34.13,11.49-37,35.79-2.64,22.67-15.93,34.22-39.7,34.53,0-.42,0-.83,0-1.25,15.66-6,24.17-16.61,25.45-34,1.55-21,13.55-33,32.07-34.89,21.92-2.21,34.92-12,37.61-28.32C230.16,176.33,221.29,162.61,199.9,153.71Z" transform="translate(-16.91 -13.21)"/><path class="cls-3" d="M131.86,292.8c0,.42,0,.83,0,1.25-19.58,4.72-30.42,16.92-30.49,34.34-.08,17.66,10,30.27,27.64,34.54l.14.69c-19.35,1.95-34.38-6.68-40-23a35.36,35.36,0,0,1,14.39-41.5C112.16,293.53,122.15,293.74,131.86,292.8Z" transform="translate(-16.91 -13.21)"/><path class="cls-5" d="M59.7,83.44c24.19-1,39.5,10.29,41.24,32.93,1.51,19.7,10.77,31.51,29.17,37l-1,1.11c-18.75,4.63-37.25-6.22-42.78-25.13A33.93,33.93,0,0,1,84.6,121C84,104,75.74,92.42,60,86.05A1.79,1.79,0,0,1,59.7,83.44Z" transform="translate(-16.91 -13.21)"/><path class="cls-3" d="M130.11,14.54c-14.58,2.11-26.21,13.31-28.45,27.4-2.5,15.79,5.17,31.09,18.92,37.71,2.5,1.21,5,2.36,7.53,3.54C98.9,86.6,82.44,60.13,88.2,39.42c4.93-17.75,20.26-27.69,41.69-26C130,13.77,130,14.15,130.11,14.54Z" transform="translate(-16.91 -13.21)"/><path class="cls-5" d="M130.11,153.39c16.51-.95,29.91,4.39,37.69,19.74a34.58,34.58,0,0,1-23.67,49.45c-5.17,1.14-10.61,1.11-15.93,1.61-.15-.44-.3-.88-.46-1.32,1.63-3.26,5.2-3.3,7.92-4.7,11.66-6,18.19-15.18,18.57-28.57.4-13.78-5.68-23.55-17.63-30-2.61-1.41-6.36-1.65-6.81-5.71Z" transform="translate(-16.91 -13.21)"/><path class="cls-5" d="M269.12,153.36c-24.37.66-38.93-9.57-40.93-32.42-1.77-20.19-11.15-32.11-29.8-37.89,29.11.12,40.91,10.23,43.61,38.44C243.66,138.74,254.47,147.51,269.12,153.36Z" transform="translate(-16.91 -13.21)"/><path class="cls-3" d="M59.7,83.44c0,.42,0,.84,0,1.26-3.18,3.77-8.27,4.11-12.11,6.94-20.86,15.33-18.29,45.11,5,56.44,2.62,1.27,6.51,1,7.09,5.17l-.54.75c-8.84-.4-17.71-.48-25.58-5.55a35.64,35.64,0,0,1-15.34-39.66c4.11-14.86,18-25.38,33.87-25.62C54.64,83.14,57.17,83.34,59.7,83.44Z" transform="translate(-16.91 -13.21)"/><path class="cls-2" d="M130.11,14.54a4,4,0,0,0-.22-1.15C153,11.6,169.3,23.16,171,45.41c1.48,19.19,10.17,31.16,27.62,37.7-26.26.6-39.29-11.18-41.74-37.76Q154.59,20.43,130.11,14.54Z" transform="translate(-16.91 -13.21)"/><path class="cls-5" d="M60.41,293.55a1.45,1.45,0,0,0,.3-1.1c.16-.28.24-.7.47-.81,17-8.29,22.48-22.93,24.8-40.69,2-15.66,16.44-27.78,31.09-29.18,3.74-.36,7.65-.93,10.86,2l.27.46c-16.92,6-25.76,17.33-27.12,35.79C99.4,282.89,83.23,295.45,60.41,293.55Z" transform="translate(-16.91 -13.21)"/><path class="cls-4" d="M133.77,83.44c21.25,0,35.51,11.07,37.15,32.48,1.49,19.32,10.4,31,27.76,37.57-25.54.31-39.51-10.78-41.36-35.16-1.25-16.55-9.27-26.86-23.55-33.5-.63-.31-.83-.62-.63-.93S133.56,83.44,133.77,83.44Z" transform="translate(-16.91 -13.21)"/><path class="cls-5" d="M278.48,223.3v-2.69c20.37-14.94,25.24-35.44,12.69-52.79-5.23-7.24-12.89-10.73-20.64-14.19,15.57-1.57,28.2,3.6,36.36,17.19,7.11,11.85,6.72,24.26-.29,36.08C300.37,217.41,290.9,223.05,278.48,223.3Z" transform="translate(-16.91 -13.21)"/><path class="cls-3" d="M133.77,83.44v1.39c-2.18.23-4.24.1-5.84-1.68Z" transform="translate(-16.91 -13.21)"/><path class="cls-1" d="M127.93,223.73c-26.72.4-38.29,11-41.25,37.82-1.86,16.8-9.62,26.05-26,30.9-16.85-1.59-29.56-15.94-29.7-33.53-.14-18.54,13-33.07,31.94-34.86,8.93-.84,17.56-1.85,24.75-8,12.1-10.41,16.26-23.87,11.52-38.29-4.67-14.2-16.41-23.09-31.94-24.15-2.53-.17-5.06-.23-7.59-.33-27.12-9.11-37.19-34.34-22-55.45,5.35-7.41,12.26-12.75,22-13.1C75,88.1,85,98.85,86.56,113.75c3.13,29.44,13,38.63,43.23,40.1,26,9.87,35.37,34.07,21.4,54.82C145.54,217.05,137.14,221,127.93,223.73Z" transform="translate(-16.91 -13.21)"/><text class="cls-6" transform="translate(315.09 221.97)">HY<tspan class="cls-7" x="172.28" y="0">P</tspan><tspan class="cls-8" x="245.15" y="0">AI</tspan><tspan class="cls-9" x="379.81" y="0">R</tspan><tspan class="cls-10" x="460.81" y="0">TUBE</tspan></text></svg>